HIERARCHY
ROOT Model
{
	OFFSET 0 0 0
	CHANNELS 6 Xposition Yposition Zposition Zrotation Xrotation Yrotation
	JOINT Model1
	{
		OFFSET 0 -2.25479 2.99384
		CHANNELS 3 Zrotation Xrotation Yrotation
		JOINT Model2
		{
			OFFSET 12.111 0 0
			CHANNELS 3 Zrotation Xrotation Yrotation
			JOINT Model3
			{
				OFFSET 11.5502 0 0
				CHANNELS 3 Zrotation Xrotation Yrotation
				JOINT Model4
				{
					OFFSET 11.781 0 0
					CHANNELS 3 Zrotation Xrotation Yrotation
					JOINT Model5
					{
						OFFSET 20.0601 0 0
						CHANNELS 3 Zrotation Xrotation Yrotation
						JOINT Model6
						{
							OFFSET 11.1962 0 0
							CHANNELS 3 Zrotation Xrotation Yrotation
							End Site
							{
								OFFSET 0 0 0
							}
						}
					}
					JOINT Model7
					{
						OFFSET 10.8223 0.417534 3.51114
						CHANNELS 3 Zrotation Xrotation Yrotation
						JOINT Model8
						{
							OFFSET -6.07943 0 0
							CHANNELS 3 Zrotation Xrotation Yrotation
							JOINT Model9
							{
								OFFSET -0.277416 10.39 -0.051239
								CHANNELS 3 Zrotation Xrotation Yrotation
								JOINT Model10
								{
									OFFSET -3.4391 -0.282043 1.86679
									CHANNELS 3 Zrotation Xrotation Yrotation
									JOINT Model11
									{
										OFFSET 13.0269 0 0
										CHANNELS 3 Zrotation Xrotation Yrotation
										JOINT Model12
										{
											OFFSET 10.8866 0 0
											CHANNELS 3 Zrotation Xrotation Yrotation
											JOINT Model13
											{
												OFFSET 16.7317 0 0
												CHANNELS 3 Zrotation Xrotation Yrotation
												JOINT Model14
												{
													OFFSET 11.8292 0 0
													CHANNELS 3 Zrotation Xrotation Yrotation
													JOINT Model15
													{
														OFFSET 4.82751 -3.73566 -0.836517
														CHANNELS 3 Zrotation Xrotation Yrotation
														JOINT Model16
														{
															OFFSET 3.75311 -0.0582886 -0.0186462
															CHANNELS 3 Zrotation Xrotation Yrotation
															JOINT Model17
															{
																OFFSET 2.88688 0.0192337 0.014801
																CHANNELS 3 Zrotation Xrotation Yrotation
																End Site
																{
																	OFFSET 0 0 0
																}
															}
														}
													}
													JOINT Model18
													{
														OFFSET 9.72197 -3.06458 0.23877
														CHANNELS 3 Zrotation Xrotation Yrotation
														JOINT Model19
														{
															OFFSET 4.61131 0 0
															CHANNELS 3 Zrotation Xrotation Yrotation
															JOINT Model20
															{
																OFFSET 2.8969 -7.62939e-006 0
																CHANNELS 3 Zrotation Xrotation Yrotation
																End Site
																{
																	OFFSET 0 0 0
																}
															}
														}
													}
													JOINT Model21
													{
														OFFSET 9.54431 -0.745064 0.588928
														CHANNELS 3 Zrotation Xrotation Yrotation
														JOINT Model22
														{
															OFFSET 5.33978 0 0
															CHANNELS 3 Zrotation Xrotation Yrotation
															JOINT Model23
															{
																OFFSET 3.03619 7.62939e-006 0
																CHANNELS 3 Zrotation Xrotation Yrotation
																End Site
																{
																	OFFSET 0 0 0
																}
															}
														}
													}
													JOINT Model24
													{
														OFFSET 9.47759 1.51286 0.485107
														CHANNELS 3 Zrotation Xrotation Yrotation
														JOINT Model25
														{
															OFFSET 4.96136 7.62939e-006 0
															CHANNELS 3 Zrotation Xrotation Yrotation
															JOINT Model26
															{
																OFFSET 2.51966 0 0
																CHANNELS 3 Zrotation Xrotation Yrotation
																End Site
																{
																	OFFSET 0 0 0
																}
															}
														}
													}
													JOINT Model27
													{
														OFFSET 9.34247 3.34117 -0.239288
														CHANNELS 3 Zrotation Xrotation Yrotation
														JOINT Model28
														{
															OFFSET 3.2826 2.28882e-005 0
															CHANNELS 3 Zrotation Xrotation Yrotation
															JOINT Model29
															{
																OFFSET 2.1292 0 0
																CHANNELS 3 Zrotation Xrotation Yrotation
																End Site
																{
																	OFFSET 0 0 0
																}
															}
														}
													}
												}
											}
										}
									}
								}
							}
						}
					}
					JOINT Model30
					{
						OFFSET 10.8223 0.4179 -3.51108
						CHANNELS 3 Zrotation Xrotation Yrotation
						JOINT Model31
						{
							OFFSET 6.07943 0 0
							CHANNELS 3 Zrotation Xrotation Yrotation
							JOINT Model32
							{
								OFFSET 0.277416 -10.39 0.051239
								CHANNELS 3 Zrotation Xrotation Yrotation
								JOINT Model33
								{
									OFFSET 3.4391 0.282043 -1.86679
									CHANNELS 3 Zrotation Xrotation Yrotation
									JOINT Model34
									{
										OFFSET -13.0269 0 0
										CHANNELS 3 Zrotation Xrotation Yrotation
										JOINT Model35
										{
											OFFSET -10.8866 0 0
											CHANNELS 3 Zrotation Xrotation Yrotation
											JOINT Model36
											{
												OFFSET -16.7317 0 0
												CHANNELS 3 Zrotation Xrotation Yrotation
												JOINT Model37
												{
													OFFSET -11.8292 0 0
													CHANNELS 3 Zrotation Xrotation Yrotation
													JOINT Model38
													{
														OFFSET -4.82751 3.73566 0.836517
														CHANNELS 3 Zrotation Xrotation Yrotation
														JOINT Model39
														{
															OFFSET -3.75311 0.0582886 0.0186462
															CHANNELS 3 Zrotation Xrotation Yrotation
															JOINT Model40
															{
																OFFSET -2.88688 -0.0192337 -0.014801
																CHANNELS 3 Zrotation Xrotation Yrotation
																End Site
																{
																	OFFSET 0 0 0
																}
															}
														}
													}
													JOINT Model41
													{
														OFFSET -9.72197 3.06459 -0.23877
														CHANNELS 3 Zrotation Xrotation Yrotation
														JOINT Model42
														{
															OFFSET -4.6113 0 0
															CHANNELS 3 Zrotation Xrotation Yrotation
															JOINT Model43
															{
																OFFSET -2.8969 0 0
																CHANNELS 3 Zrotation Xrotation Yrotation
																End Site
																{
																	OFFSET 0 0 0
																}
															}
														}
													}
													JOINT Model44
													{
														OFFSET -9.5443 0.745064 -0.588928
														CHANNELS 3 Zrotation Xrotation Yrotation
														JOINT Model45
														{
															OFFSET -5.33978 0 0
															CHANNELS 3 Zrotation Xrotation Yrotation
															JOINT Model46
															{
																OFFSET -3.03619 -1.52588e-005 0
																CHANNELS 3 Zrotation Xrotation Yrotation
																End Site
																{
																	OFFSET 0 0 0
																}
															}
														}
													}
													JOINT Model47
													{
														OFFSET -9.47759 -1.51286 -0.485107
														CHANNELS 3 Zrotation Xrotation Yrotation
														JOINT Model48
														{
															OFFSET -4.96136 -1.52588e-005 0
															CHANNELS 3 Zrotation Xrotation Yrotation
															JOINT Model49
															{
																OFFSET -2.51966 0 0
																CHANNELS 3 Zrotation Xrotation Yrotation
																End Site
																{
																	OFFSET 0 0 0
																}
															}
														}
													}
													JOINT Model50
													{
														OFFSET -9.34246 -3.34118 0.239288
														CHANNELS 3 Zrotation Xrotation Yrotation
														JOINT Model51
														{
															OFFSET -3.2826 -2.28882e-005 0
															CHANNELS 3 Zrotation Xrotation Yrotation
															JOINT Model52
															{
																OFFSET -2.1292 0 0
																CHANNELS 3 Zrotation Xrotation Yrotation
																End Site
																{
																	OFFSET 0 0 0
																}
															}
														}
													}
												}
											}
										}
									}
								}
							}
						}
					}
				}
			}
		}
	}
	JOINT Model53
	{
		OFFSET 4.38026 -2.14632 -1.11517
		CHANNELS 3 Zrotation Xrotation Yrotation
		JOINT Model54
		{
			OFFSET 0 0 4.94998
			CHANNELS 3 Zrotation Xrotation Yrotation
			JOINT Model55
			{
				OFFSET 18.5642 0 0
				CHANNELS 3 Zrotation Xrotation Yrotation
				JOINT Model56
				{
					OFFSET 21.2884 0 0
					CHANNELS 3 Zrotation Xrotation Yrotation
					JOINT Model57
					{
						OFFSET 30.261 0 0
						CHANNELS 3 Zrotation Xrotation Yrotation
						JOINT Model58
						{
							OFFSET 11.7259 0 0
							CHANNELS 3 Zrotation Xrotation Yrotation
							JOINT Model59
							{
								OFFSET 10.682 0 0
								CHANNELS 3 Zrotation Xrotation Yrotation
								End Site
								{
									OFFSET 0 0 0
								}
							}
						}
					}
				}
			}
		}
	}
	JOINT Model60
	{
		OFFSET -4.38026 -2.14632 -1.11517
		CHANNELS 3 Zrotation Xrotation Yrotation
		JOINT Model61
		{
			OFFSET 0 0 -4.94998
			CHANNELS 3 Zrotation Xrotation Yrotation
			JOINT Model62
			{
				OFFSET -18.5642 0 0
				CHANNELS 3 Zrotation Xrotation Yrotation
				JOINT Model63
				{
					OFFSET -21.2884 0 0
					CHANNELS 3 Zrotation Xrotation Yrotation
					JOINT Model64
					{
						OFFSET -30.261 0 0
						CHANNELS 3 Zrotation Xrotation Yrotation
						JOINT Model65
						{
							OFFSET -11.7259 0 0
							CHANNELS 3 Zrotation Xrotation Yrotation
							JOINT Model66
							{
								OFFSET -10.682 0 0
								CHANNELS 3 Zrotation Xrotation Yrotation
								End Site
								{
									OFFSET 0 0 0
								}
							}
						}
					}
				}
			}
		}
	}
}
MOTION
Frames: 4
Frame Time: 0.033333
309.844 169.481 -425.844 -95.8505 54.6487 -82.5833 -180 4.29621e-031 -90 0.744644 0.916084 1.64944 1.46291 1.85271 3.28747 1.46291 1.85315 3.28746 61.7823 7.60126 -24.2388 -82.8063 4.5266 12.5144 120.092 75.5343 58.4939 -13.16 -7.76698 -0.781557 -167.277 84.4999 48.8109 178.07 8.82932 17.2311 9.94113e-007 30.4318 3.71145e-005 -9.86457 -8.05215 -4.2273 -9.43228e-007 -12.253 -1.37507e-006 -4.71801 -0.0938446 2.27772 -72.0648 39.0385 39.3397 33.3638 2.10362 14.835 0.588947 0.308273 6.35287 -99.6409 81.413 100.35 -0.0181409 2.77984e-005 -0.117315 -0.124139 0.00241115 -0.799296 -79.8382 79.5773 80.5374 -0.000225782 -0.000220902 2.21669e-005 -0.000956234 0.000122923 -2.7358e-005 -66.7416 80.4058 67.2171 -0.000437139 1.59654e-005 -2.7347e-005 -0.000136613 -0.000109264 -5.46771e-005 -6.42159 81.2158 8.01779 -0.000218573 1.69184e-005 0.00021212 0.000901574 -0.000184788 -0.000218593 -59.9282 75.5373 58.5147 -13.1441 -1.73906 1.89972 -167.277 84.4999 48.8109 175.594 0.115808 32.4531 7.55357e-007 11.2251 3.05808e-005 -48.2811 -9.02991 0.460826 4.06742e-006 -14.1968 -9.67815e-007 12.2846 0.0832431 0.773468 -72.0648 39.0385 39.3397 33.3638 2.10361 14.835 0.588946 0.308273 6.35287 -99.6409 81.413 100.35 -0.0181409 3.00955e-005 -0.117315 -0.124139 0.00241115 -0.799296 -79.8382 79.5773 80.5374 -0.000260654 -0.000218549 2.35784e-005 -0.000956237 0.00012302 -2.73098e-005 -66.7416 80.4058 67.2171 -0.00043714 1.48984e-005 -2.73119e-005 -0.000136614 -0.00010926 -5.46295e-005 -6.42159 81.2158 8.01779 -0.000218572 1.95971e-005 0.000212309 0.000901575 -0.000191221 -0.00021855 0.000811311 0.56661 89.91 -21.3903 6.94293 3.03809 1.90407e-006 8.89496 -7.46753e-008 60.5163 -0.291043 -0.00741244 -1.93348e-007 -0.542217 -2.20103e-007 -74.289 15.5843 -8.53715 -39.086 -10.2202 -0.0904074 -180 -0.566579 -90.09 -29.7965 -24.0207 -30.3565 -1.06965e-005 -23.8713 -2.72698e-006 54.3955 13.306 -0.00664151 9.19546e-007 19.8607 1.74383e-006 -62.218 19.0865 -12.4325 -35.4947 -1.76367e-007 2.96182e-008 
310.764 168.987 -428.166 -95.4033 53.5102 -82.1955 -180 4.29621e-031 -90 0.6508 0.948396 1.84158 1.27107 1.91672 3.67304 1.27107 1.91716 3.67303 61.4245 6.85339 -23.9398 -82.5068 3.80431 12.213 120.092 75.5343 58.4939 -13.6666 -7.79631 -0.74045 -167.277 84.4999 48.8109 177.983 8.35804 15.1663 9.21226e-007 30.5287 3.71514e-005 -10.4384 -8.28451 -5.51575 -9.52632e-007 -12.6354 -1.3771e-006 -4.83848 -0.094105 2.22713 -72.0648 39.0385 39.3397 33.3638 2.10362 14.835 0.588947 0.308273 6.35287 -99.6409 81.413 100.35 -0.0181409 2.77984e-005 -0.117315 -0.124139 0.00241115 -0.799296 -79.8382 79.5773 80.5374 -0.000225782 -0.000220902 2.21669e-005 -0.000956234 0.000122923 -2.7358e-005 -66.7416 80.4058 67.2171 -0.000437139 1.59654e-005 -2.7347e-005 -0.000136613 -0.000109264 -5.46771e-005 -6.42159 81.2158 8.01779 -0.000218573 1.69184e-005 0.00021212 0.000901574 -0.000184788 -0.000218593 -59.9282 75.5373 58.5147 -12.2608 -1.62534 1.79962 -167.277 84.4999 48.8109 174.621 0.261725 32.957 5.54779e-007 11.5933 3.06205e-005 -48.8911 -9.27065 0.465497 4.06107e-006 -14.5605 -9.69391e-007 12.5067 0.0539975 0.492734 -72.0648 39.0385 39.3397 33.3638 2.10361 14.835 0.588946 0.308273 6.35287 -99.6409 81.413 100.35 -0.0181409 3.00955e-005 -0.117315 -0.124139 0.00241115 -0.799296 -79.8382 79.5773 80.5374 -0.000260654 -0.000218549 2.35784e-005 -0.000956237 0.00012302 -2.73098e-005 -66.7416 80.4058 67.2171 -0.00043714 1.48984e-005 -2.73119e-005 -0.000136614 -0.00010926 -5.46295e-005 -6.42159 81.2158 8.01779 -0.000218572 1.95971e-005 0.000212309 0.000901575 -0.000191221 -0.00021855 0.000811311 0.56661 89.91 -21.5292 6.79677 1.18627 1.90508e-006 9.66127 -7.48387e-008 62.5344 -0.536994 -0.0075436 -1.94774e-007 -0.913373 -2.20121e-007 -74.4342 15.6115 -8.53067 -39.9738 -12.7723 -0.307863 -180 -0.566579 -90.09 -27.2472 -25.8224 -29.5133 -1.08111e-005 -26.0366 -2.77537e-006 55.2974 13.9928 -0.00676656 8.86027e-007 20.8897 1.7555e-006 -65.7835 20.499 -12.5809 -35.4947 -5.39336e-008 -1.9327e-008 
311.577 168.671 -430.439 -94.5386 53.4092 -82.1399 -180 4.29621e-031 -90 0.559652 1.06381 2.04172 1.08135 2.14641 4.07402 1.08135 2.14685 4.07401 60.8056 6.0553 -24.1899 -82.4473 3.07793 11.8971 120.092 75.5343 58.4939 -14.7874 -8.15378 -0.786907 -167.277 84.4999 48.8109 178.415 7.80783 12.8084 8.81946e-007 30.5809 3.71714e-005 -10.8171 -8.99854 -6.70401 -9.80094e-007 -13.7453 -1.38337e-006 -4.92116 -0.102875 2.39369 -72.0648 39.0385 39.3397 33.3638 2.10362 14.835 0.588947 0.308273 6.35287 -99.6409 81.413 100.35 -0.0181409 2.77984e-005 -0.117315 -0.124139 0.00241115 -0.799296 -79.8382 79.5773 80.5374 -0.000225782 -0.000220902 2.21669e-005 -0.000956234 0.000122923 -2.7358e-005 -66.7416 80.4058 67.2171 -0.000437139 1.59654e-005 -2.7347e-005 -0.000136613 -0.000109264 -5.46771e-005 -6.42159 81.2158 8.01779 -0.000218573 1.69184e-005 0.00021212 0.000901574 -0.000184788 -0.000218593 -59.9282 75.5373 58.5147 -11.5213 -0.837108 2.00823 -167.277 84.4999 48.8109 173.254 0.0745684 33.074 4.72085e-007 11.7447 3.06372e-005 -49.3107 -9.92516 0.469399 4.0438e-006 -15.5441 -9.73877e-007 12.9317 0.0344446 0.303883 -72.0648 39.0385 39.3397 33.3638 2.10361 14.835 0.588946 0.308273 6.35287 -99.6409 81.413 100.35 -0.0181409 3.00955e-005 -0.117315 -0.124139 0.00241115 -0.799296 -79.8382 79.5773 80.5374 -0.000260654 -0.000218549 2.35784e-005 -0.000956237 0.00012302 -2.73098e-005 -66.7416 80.4058 67.2171 -0.00043714 1.48984e-005 -2.73119e-005 -0.000136614 -0.00010926 -5.46295e-005 -6.42159 81.2158 8.01779 -0.000218572 1.95971e-005 0.000212309 0.000901575 -0.000191221 -0.00021855 0.000811311 0.56661 89.91 -22.9158 6.82144 -0.0240795 1.90598e-006 10.3381 -7.49947e-008 65.5647 -1.29639 -0.0076806 -1.99165e-007 -2.05553 -2.20235e-007 -71.3115 14.7388 -8.50853 -42.2127 -17.2727 -1.12126 -180 -0.566579 -90.09 -25.2001 -26.7632 -27.7463 -1.08938e-005 -27.5488 -2.81261e-006 55.8062 14.3308 -0.00683257 8.69365e-007 21.3961 1.76151e-006 -68.1706 22.3299 -13.1247 -35.4947 1.38838e-007 -8.55458e-008 
312.278 168.594 -432.629 -93.6438 53.9947 -82.4414 -180 4.29621e-031 -90 0.51821 1.19957 2.18464 0.990656 2.41754 4.3598 0.990656 2.41797 4.35979 60.3241 5.0959 -24.6886 -82.7973 2.21582 11.5624 120.092 75.5343 58.4939 -15.9535 -8.61068 -0.884397 -167.277 84.4999 48.8109 179.3 7.27302 10.9444 9.64893e-007 30.4707 3.71293e-005 -10.6442 -9.86433 -7.25507 -1.01304e-006 -15.0631 -1.39156e-006 -4.93736 -0.114365 2.65219 -72.0648 39.0385 39.3397 33.3638 2.10362 14.835 0.588947 0.308273 6.35287 -99.6409 81.413 100.35 -0.0181409 2.77984e-005 -0.117315 -0.124139 0.00241115 -0.799296 -79.8382 79.5773 80.5374 -0.000225782 -0.000220902 2.21669e-005 -0.000956234 0.000122923 -2.7358e-005 -66.7416 80.4058 67.2171 -0.000437139 1.59654e-005 -2.7347e-005 -0.000136613 -0.000109264 -5.46771e-005 -6.42159 81.2158 8.01779 -0.000218573 1.69184e-005 0.00021212 0.000901574 -0.000184788 -0.000218593 -59.9282 75.5373 58.5147 -11.1303 0.418302 2.4639 -167.277 84.4999 48.8109 171.566 -0.50039 32.7794 5.76241e-007 11.5539 3.06162e-005 -49.1398 -10.6481 0.469311 4.02458e-006 -16.6279 -9.79204e-007 13.4791 0.0257698 0.218025 -72.0648 39.0385 39.3397 33.3638 2.10361 14.835 0.588946 0.308273 6.35287 -99.6409 81.413 100.35 -0.0181409 3.00955e-005 -0.117315 -0.124139 0.00241115 -0.799296 -79.8382 79.5773 80.5374 -0.000260654 -0.000218549 2.35784e-005 -0.000956237 0.00012302 -2.73098e-005 -66.7416 80.4058 67.2171 -0.00043714 1.48984e-005 -2.73119e-005 -0.000136614 -0.00010926 -5.46295e-005 -6.42159 81.2158 8.01779 -0.000218572 1.95971e-005 0.000212309 0.000901575 -0.000191221 -0.00021855 0.000811311 0.56661 89.91 -25.2187 7.3041 0.153125 1.90683e-006 10.9788 -7.51527e-008 69.3845 -2.74665 -0.0078193 -2.07561e-007 -4.23429 -2.20695e-007 -64.9949 13.144 -8.4128 -46.4377 -19.481 -2.90113 -180 -0.566579 -90.09 -23.6434 -26.5864 -25.3799 -1.09106e-005 -27.8526 -2.82045e-006 55.8815 14.0863 -0.00681615 8.81448e-007 21.0292 1.75714e-006 -69.8524 23.6304 -13.4631 -35.4947 3.78021e-007 -1.62547e-007 
